<svg width="50.000000" height="50.000000" viewBox="0 0 50 50" fill="none" xmlns="http://www.w3.org/2000/svg" xmlns:xlink="http://www.w3.org/1999/xlink">
	<desc>
			Created with Pixso.
	</desc>
	<defs>
		<linearGradient x1="0.000000" y1="0.000000" x2="49.999996" y2="0.000000" id="paint_linear_38_15_0" gradientUnits="userSpaceOnUse">
			<stop stop-color="#9BC690"/>
			<stop offset="1.000000" stop-color="#65B4AB"/>
		</linearGradient>
	</defs>
	<path id="path925" d="M23.06 0C22.46 0.36 21.92 0.85 21.16 0.86C18.85 0.83 15.86 -0.61 14.82 1.97C11.02 1.72 11.86 3.43 11.82 4.77C12.74 4.44 13.75 3.85 14.56 3.91C23.5 8.68 19.27 12.45 17.01 16.44L13.45 14.89C14.38 12.05 14.83 9.31 12.11 7.21C-4.02 6.44 2.58 25.49 0 36.52C3.24 35.99 5.66 34.32 7.93 32.45L8.12 29.54C11.1 29.34 11.27 27.03 11.88 25.05C13.06 27.63 13.97 25.56 14.99 25.2C15.54 26.62 16.55 27.08 18.45 25.66L19.46 26.85C15.74 27.97 15.45 30.32 15.21 32.7C14.49 34.13 13.22 35.19 11.95 36.25C9.34 33.18 8.55 34.59 7.44 35.21C8.07 35.25 8.76 35.23 8.88 35.82C6.88 36.06 7.13 37.01 7.63 38.05C7.91 37.61 8.05 36.73 8.61 37.19C9.39 38.14 10.57 37.74 11.65 37.73C12.57 38.89 13.47 38.59 13.65 40.2L13.06 41.06C13.94 41.14 15.19 40.16 14.78 39.51C14.78 39.51 13.32 38.18 13.42 37.29C13.59 35.61 16.82 33.85 16.82 33.85C16.82 33.85 18.04 34 18.65 33.88C19.67 33.69 21.55 32.66 21.55 32.66C19.36 36.95 16.49 40.48 16.63 44.95C16.7 47.3 19.57 47.51 20.1 46.12C20.22 49.3 21.49 49.34 23.35 47.79C24.37 50.79 25.82 50.66 26.64 47.79C28.5 49.34 29.77 49.3 29.89 46.12C30.42 47.51 33.29 47.3 33.36 44.95C33.38 44.27 33.33 43.62 33.22 42.99C33.66 43.06 34.11 43.1 34.56 43.1C35.72 43.1 36.84 42.88 37.93 42.44C39.02 41.99 40 41.36 40.89 40.53C41.77 39.7 42.49 38.73 43.06 37.62C43.63 36.5 44 35.32 44.18 34.06C45.87 35.22 47.73 36.15 50 36.52C47.41 25.49 54.01 6.44 37.88 7.21C35.16 9.31 35.61 12.05 36.54 14.89L32.98 16.44C30.72 12.45 26.49 8.68 35.43 3.91C36.24 3.86 37.24 4.44 38.17 4.77C38.13 3.43 38.97 1.72 35.17 1.97C34.13 -0.61 31.14 0.83 28.83 0.86C28.07 0.85 27.53 0.36 26.93 0C26.84 1.05 26.93 2.04 28.31 2.53C26.27 4.27 25.71 7.53 24.99 10.4C24.28 7.53 23.72 4.27 21.68 2.53C23.06 2.04 23.15 1.05 23.06 0Z" fill="url(#paint_linear_38_15_0)" fill-opacity="1.000000" fill-rule="nonzero"/>
	<path id="path925" d="M21.16 0.86C18.85 0.83 15.86 -0.61 14.82 1.97C11.02 1.72 11.86 3.43 11.82 4.77C12.74 4.44 13.75 3.85 14.56 3.91C23.5 8.68 19.27 12.45 17.01 16.44L13.45 14.89C14.38 12.05 14.83 9.31 12.11 7.21C-4.02 6.44 2.58 25.49 0 36.52C3.24 35.99 5.66 34.32 7.93 32.45L8.12 29.54C11.1 29.34 11.27 27.03 11.88 25.05C13.06 27.63 13.97 25.56 14.99 25.2C15.54 26.62 16.55 27.08 18.45 25.66L19.46 26.85C15.74 27.97 15.45 30.32 15.21 32.7C14.49 34.13 13.22 35.19 11.95 36.25C9.34 33.18 8.55 34.59 7.44 35.21C8.07 35.25 8.76 35.23 8.88 35.82C6.88 36.06 7.13 37.01 7.63 38.05C7.91 37.61 8.05 36.73 8.61 37.19C9.39 38.14 10.57 37.74 11.65 37.73C12.57 38.89 13.47 38.59 13.65 40.2L13.06 41.06C13.94 41.14 15.19 40.16 14.78 39.51C14.78 39.51 13.32 38.18 13.42 37.29C13.59 35.61 16.82 33.85 16.82 33.85C16.82 33.85 18.04 34 18.65 33.88C19.67 33.69 21.55 32.66 21.55 32.66C19.36 36.95 16.49 40.48 16.63 44.95C16.7 47.3 19.57 47.51 20.1 46.12C20.22 49.3 21.49 49.34 23.35 47.79C24.37 50.79 25.82 50.66 26.64 47.79C28.5 49.34 29.77 49.3 29.89 46.12C30.42 47.51 33.29 47.3 33.36 44.95C33.38 44.27 33.33 43.62 33.22 42.99C33.66 43.06 34.11 43.1 34.56 43.1C35.72 43.1 36.84 42.88 37.93 42.44C39.02 41.99 40 41.36 40.89 40.53C41.77 39.7 42.49 38.73 43.06 37.62C43.63 36.5 44 35.32 44.18 34.06C45.87 35.22 47.73 36.15 50 36.52C47.41 25.49 54.01 6.44 37.88 7.21C35.16 9.31 35.61 12.05 36.54 14.89L32.98 16.44C30.72 12.45 26.49 8.68 35.43 3.91C36.24 3.86 37.24 4.44 38.17 4.77C38.13 3.43 38.97 1.72 35.17 1.97C34.13 -0.61 31.14 0.83 28.83 0.86C28.07 0.85 27.53 0.36 26.93 0C26.84 1.05 26.93 2.04 28.31 2.53C26.27 4.27 25.71 7.53 24.99 10.4C24.28 7.53 23.72 4.27 21.68 2.53C23.06 2.04 23.15 1.05 23.06 0C22.46 0.36 21.92 0.85 21.16 0.86Z" stroke="#C57AEA" stroke-opacity="1.000000" stroke-width="0.000000"/>
	<path id="rect832" d="M33.17 27.26L33.17 30.83L29.92 30.83L29.92 33.85L33.17 33.85L33.17 37.42L35.92 37.42L35.92 33.85L39.17 33.85L39.17 30.83L35.92 30.83L35.92 27.26L33.17 27.26Z" fill="#FFFFFF" fill-opacity="1.000000" fill-rule="nonzero"/>
	<path id="rect832" d="M33.17 30.83L29.92 30.83L29.92 33.85L33.17 33.85L33.17 37.42L35.92 37.42L35.92 33.85L39.17 33.85L39.17 30.83L35.92 30.83L35.92 27.26L33.17 27.26L33.17 30.83Z" stroke="#000000" stroke-opacity="0" stroke-width="0.785366"/>
	<ellipse id="circle858" cx="34.559082" cy="32.384155" rx="9.759339" ry="10.722282" fill="#000000" fill-opacity="0"/>
	<ellipse id="circle858" cx="34.559082" cy="32.384155" rx="9.759339" ry="10.722282" stroke="#FFFFFD" stroke-opacity="1.000000" stroke-width="2.900849"/>
</svg>
