<svg width="18.000000" height="20.000000" viewBox="0 0 18 20" fill="none" xmlns="http://www.w3.org/2000/svg" xmlns:xlink="http://www.w3.org/1999/xlink">
	<desc>
			Created with Pixso.
	</desc>
	<defs/>
	<path id="Иконка события" d="M6 9L4 9L4 11L6 11L6 9ZM10 9L8 9L8 11L10 11L10 9ZM14 9L12 9L12 11L14 11L14 9ZM16 2L15 2L15 0L13 0L13 2L5 2L5 0L3 0L3 2L2 2C0.89 2 0 2.9 0 4L0 18C0 19.1 0.89 20 2 20L16 20C17.1 20 18 19.1 18 18L18 4C18 2.9 17.1 2 16 2ZM16 18L2 18L2 7L16 7L16 18Z" fill="#444444" fill-opacity="1.000000" fill-rule="evenodd"/>
</svg>
