<svg width="44.000000" height="44.000000" viewBox="0 0 44 44" fill="none" xmlns="http://www.w3.org/2000/svg" xmlns:xlink="http://www.w3.org/1999/xlink">
	<desc>
			Created with Pixso.
	</desc>
	<defs/>
	<path id="Иконка - карты" d="M17.79 0L26.2 0C29.96 -4.58e-5 32.94 -7.63e-5 35.27 0.38C37.67 0.78 39.62 1.61 41.15 3.49C42.68 5.37 43.36 7.76 43.68 10.71C43.87 12.4 43.94 14.37 43.97 16.65C43.99 16.75 44 16.86 44 16.97C44 17.06 43.99 17.14 43.98 17.23C44 18.65 44 20.19 44 21.85L44 22.14C44 26.76 44 30.42 43.68 33.28C43.36 36.23 42.68 38.62 41.15 40.5C39.62 42.38 37.67 43.21 35.27 43.61C32.94 44 29.96 44 26.2 44L17.79 44C14.03 44 11.05 44 8.72 43.61C6.32 43.21 4.37 42.38 2.84 40.5C1.31 38.62 0.63 36.23 0.31 33.28C0 30.42 0 26.76 0 22.14L0 21.85C0 20.19 0 18.65 0.01 17.23C0 17.14 0 17.05 0 16.97C0 16.86 0 16.75 0.02 16.65C0.05 14.37 0.12 12.4 0.31 10.71C0.63 7.76 1.31 5.37 2.84 3.49C4.37 1.61 6.32 0.78 8.72 0.38C11.05 -7.63e-5 14.03 -4.58e-5 17.79 0ZM3.07 18.85C3.06 19.83 3.06 20.87 3.06 22C3.06 26.79 3.07 30.2 3.35 32.78C3.63 35.31 4.15 36.77 5.01 37.83C5.88 38.89 7.07 39.53 9.12 39.87C11.23 40.22 14 40.22 17.9 40.22L26.09 40.22C29.99 40.22 32.76 40.22 34.87 39.87C36.92 39.53 38.11 38.89 38.98 37.83C39.84 36.77 40.36 35.31 40.64 32.78C40.92 30.2 40.93 26.79 40.93 22C40.93 20.87 40.93 19.83 40.92 18.85L3.07 18.85ZM40.87 15.08L3.12 15.08C3.16 13.61 3.23 12.33 3.35 11.21C3.63 8.68 4.15 7.22 5.01 6.16C5.88 5.1 7.07 4.46 9.12 4.12C11.23 3.77 14 3.77 17.9 3.77L26.09 3.77C29.99 3.77 32.76 3.77 34.87 4.12C36.92 4.46 38.11 5.1 38.98 6.16C39.84 7.22 40.36 8.68 40.64 11.21C40.76 12.33 40.83 13.61 40.87 15.08ZM8.18 32.05C8.18 31.01 8.87 30.17 9.72 30.17L17.9 30.17C18.75 30.17 19.44 31.01 19.44 32.05C19.44 33.09 18.75 33.94 17.9 33.94L9.72 33.94C8.87 33.94 8.18 33.09 8.18 32.05ZM21.48 32.05C21.48 31.01 22.17 30.17 23.02 30.17L26.09 30.17C26.94 30.17 27.62 31.01 27.62 32.05C27.62 33.09 26.94 33.94 26.09 33.94L23.02 33.94C22.17 33.94 21.48 33.09 21.48 32.05Z" fill="#000000" fill-opacity="1.000000" fill-rule="evenodd"/>
</svg>
