<svg width="42.000000" height="42.000000" viewBox="0 0 42 42" fill="none" xmlns="http://www.w3.org/2000/svg" xmlns:xlink="http://www.w3.org/1999/xlink">
	<desc>
			Created with Pixso.
	</desc>
	<defs/>
	<path id="Иконка - переводы" d="M31.5 23.18C32.66 23.18 33.6 24.39 33.6 25.87C33.6 27.25 32.79 28.38 31.74 28.54L31.5 28.56L7.17 28.56L14.08 37.41C14.84 38.38 14.9 39.9 14.26 40.95C13.5 41.92 12.13 42.25 11.31 41.43L0.61 27.77C-0.65 26.15 0.15 23.43 1.86 23.2L2.1 23.18L31.5 23.18ZM30.68 -0.44L41.38 13.22C42.64 14.84 41.84 17.56 40.13 17.79L39.89 17.81L10.49 17.81C9.33 17.81 8.39 16.6 8.39 15.12C8.39 13.74 9.2 12.61 10.25 12.45L10.49 12.43L34.82 12.43L27.91 3.58C27.15 2.61 27.09 1.09 27.73 0.04C28.49 -0.93 29.86 -1.26 30.68 -0.44Z" fill="#000000" fill-opacity="1.000000" fill-rule="nonzero"/>
	<path id="Иконка - переводы" d="M33.6 25.87C33.6 27.25 32.79 28.38 31.74 28.54L31.5 28.56L7.17 28.56L14.08 37.41C14.84 38.38 14.9 39.9 14.26 40.95C13.5 41.92 12.13 42.25 11.31 41.43L0.61 27.77C-0.65 26.15 0.15 23.43 1.86 23.2L2.1 23.18L31.5 23.18C32.66 23.18 33.6 24.39 33.6 25.87ZM41.38 13.22C42.64 14.84 41.84 17.56 40.13 17.79L39.89 17.81L10.49 17.81C9.33 17.81 8.39 16.6 8.39 15.12C8.39 13.74 9.2 12.61 10.25 12.45L10.49 12.43L34.82 12.43L27.91 3.58C27.15 2.61 27.09 1.09 27.73 0.04C28.49 -0.93 29.86 -1.26 30.68 -0.44L41.38 13.22Z" stroke="#000000" stroke-opacity="0" stroke-width="0.000000"/>
</svg>
