<svg width="43.000000" height="43.000000" viewBox="0 0 43 43" fill="none" xmlns="http://www.w3.org/2000/svg" xmlns:xlink="http://www.w3.org/1999/xlink">
	<desc>
			Created with Pixso.
	</desc>
	<defs/>
	<path id="Иконка - инвестиции" d="M28.87 5.25L38.06 5.25C39.14 5.25 40.07 5.63 40.84 6.4C41.61 7.17 42 8.1 42 9.18L42 19.68C41.98 20.34 41.65 20.75 41.02 20.92L40.68 21L40.68 32.81C40.68 33.89 40.3 34.82 39.53 35.59C38.76 36.36 37.83 36.75 36.75 36.75L31.5 36.75C30.88 37.56 30.19 38.29 29.41 38.95C28.62 39.6 27.78 40.15 26.87 40.61C25.95 41.07 25 41.41 24.01 41.64C23.02 41.88 22.01 42 21 42C19.98 42 18.97 41.88 17.98 41.64Q17.23 41.47 16.52 41.21Q15.81 40.95 15.13 40.61C14.21 40.15 13.37 39.6 12.59 38.95C11.8 38.29 11.11 37.56 10.5 36.75L5.25 36.75C4.16 36.75 3.23 36.36 2.46 35.59C1.69 34.82 1.31 33.89 1.31 32.81L1.31 21L0.97 21C0.3 20.81 -0.03 20.38 0 19.68L0 9.18C0 8.1 0.38 7.17 1.15 6.4C1.92 5.63 2.85 5.25 3.93 5.25L13.12 5.25L13.12 3.93C13.12 2.85 13.51 1.92 14.27 1.15C15.04 0.38 15.97 0 17.06 0L24.93 0C26.02 0 26.95 0.38 27.72 1.15C28.49 1.92 28.87 2.85 28.87 3.93L28.87 5.25ZM17.06 2.62C16.18 2.62 15.75 3.06 15.75 3.93L15.75 5.25L26.25 5.25L26.25 3.93C26.25 3.06 25.81 2.62 24.93 2.62L17.06 2.62ZM3.93 7.87C3.06 7.87 2.62 8.31 2.62 9.18L2.62 18.67L10.65 20.81C11.27 20.03 11.96 19.32 12.74 18.69C13.51 18.06 14.35 17.53 15.24 17.1C16.14 16.66 17.07 16.33 18.04 16.1C19.01 15.88 20 15.77 21 15.77C21.99 15.77 22.98 15.88 23.95 16.1C24.92 16.33 25.85 16.66 26.75 17.1C27.64 17.53 28.48 18.06 29.26 18.69C30.03 19.32 30.72 20.03 31.34 20.81L39.37 18.67L39.37 9.18C39.37 8.31 38.93 7.87 38.06 7.87L3.93 7.87ZM16.98 38.57C18.26 39.1 19.6 39.37 21 39.37C22.39 39.37 23.73 39.1 25.01 38.57C26.3 38.04 27.44 37.28 28.42 36.29C29.4 35.31 30.16 34.17 30.7 32.89C31.23 31.6 31.5 30.26 31.5 28.87Q31.5 27.83 31.3 26.82Q31.1 25.82 30.7 24.85C30.16 23.57 29.4 22.43 28.42 21.45C27.44 20.46 26.3 19.7 25.01 19.17C23.73 18.64 22.39 18.37 21 18.37Q19.95 18.37 18.94 18.57Q17.94 18.77 16.98 19.17C15.69 19.7 14.56 20.46 13.57 21.45C12.59 22.43 11.83 23.57 11.3 24.85C10.76 26.14 10.5 27.48 10.5 28.87Q10.5 29.91 10.7 30.92Q10.9 31.92 11.3 32.89C11.83 34.17 12.59 35.31 13.57 36.29C14.56 37.28 15.69 38.04 16.98 38.57ZM23.62 24.93L21 24.93C20.12 24.93 19.68 25.37 19.68 26.25C19.68 27.12 20.12 27.56 21 27.56C21.95 27.56 22.79 27.88 23.51 28.49C24.24 29.11 24.68 29.89 24.85 30.83C25.01 31.77 24.85 32.65 24.37 33.47C23.89 34.3 23.2 34.87 22.31 35.2L22.31 35.43C22.31 36.31 21.87 36.75 21 36.75C20.12 36.75 19.68 36.31 19.68 35.43L18.37 35.43C17.5 35.43 17.06 35 17.06 34.12C17.06 33.25 17.5 32.81 18.37 32.81L21 32.81C21.87 32.81 22.31 32.37 22.31 31.5C22.31 30.62 21.87 30.18 21 30.18C20.04 30.18 19.2 29.86 18.48 29.25C17.75 28.63 17.31 27.85 17.15 26.91C16.98 25.97 17.14 25.09 17.62 24.27C18.1 23.44 18.79 22.87 19.68 22.54L19.68 22.31C19.68 21.43 20.12 21 21 21C21.87 21 22.31 21.43 22.31 22.31L23.62 22.31C24.5 22.31 24.93 22.75 24.93 23.62C24.93 24.5 24.5 24.93 23.62 24.93ZM3.93 32.81C3.93 33.68 4.37 34.12 5.25 34.12L8.97 34.12C7.34 30.43 7.41 26.76 9.18 23.13L3.93 21.74L3.93 32.81ZM36.75 34.12C37.62 34.12 38.06 33.68 38.06 32.81L38.06 21.74L32.81 23.13C34.58 26.76 34.65 30.43 33.02 34.12L36.75 34.12Z" fill="#000000" fill-opacity="1.000000" fill-rule="evenodd"/>
	<path id="Иконка - инвестиции" d="M28.87 5.25L28.87 3.93C28.87 2.85 28.49 1.92 27.72 1.15C26.95 0.38 26.02 0 24.93 0L17.06 0C15.97 0 15.04 0.38 14.27 1.15C13.51 1.92 13.12 2.85 13.12 3.93L13.12 5.25L3.93 5.25C2.85 5.25 1.92 5.63 1.15 6.4C0.38 7.17 0 8.1 0 9.18L0 19.68C-0.03 20.38 0.3 20.81 0.97 21L1.31 21L1.31 32.81C1.31 33.89 1.69 34.82 2.46 35.59C3.23 36.36 4.16 36.75 5.25 36.75L10.5 36.75C11.11 37.56 11.8 38.29 12.59 38.95C13.37 39.6 14.21 40.15 15.13 40.61C16.04 41.07 16.99 41.41 17.98 41.64C18.97 41.88 19.98 42 21 42C22.01 42 23.02 41.88 24.01 41.64C25 41.41 25.95 41.07 26.87 40.61C27.78 40.15 28.62 39.6 29.41 38.95C30.19 38.29 30.88 37.56 31.5 36.75L36.75 36.75C37.83 36.75 38.76 36.36 39.53 35.59C40.3 34.82 40.68 33.89 40.68 32.81L40.68 21L41.02 20.92C41.65 20.75 41.98 20.34 42 19.68L42 9.18C42 8.1 41.61 7.17 40.84 6.4C40.07 5.63 39.14 5.25 38.06 5.25L28.87 5.25ZM17.06 2.62L24.93 2.62C25.81 2.62 26.25 3.06 26.25 3.93L26.25 5.25L15.75 5.25L15.75 3.93C15.75 3.06 16.18 2.62 17.06 2.62ZM3.93 7.87L38.06 7.87C38.93 7.87 39.37 8.31 39.37 9.18L39.37 18.67L31.34 20.81C30.72 20.03 30.03 19.32 29.26 18.69C28.48 18.06 27.64 17.53 26.75 17.1C25.85 16.66 24.92 16.33 23.95 16.1C22.98 15.88 21.99 15.77 21 15.77C20 15.77 19.01 15.88 18.04 16.1C17.07 16.33 16.14 16.66 15.24 17.1C14.35 17.53 13.51 18.06 12.74 18.69C11.96 19.32 11.27 20.03 10.65 20.81L2.62 18.67L2.62 9.18C2.62 8.31 3.06 7.87 3.93 7.87ZM3.93 32.81L3.93 21.74L9.18 23.13C7.41 26.76 7.34 30.43 8.97 34.12L5.25 34.12C4.37 34.12 3.93 33.68 3.93 32.81ZM16.98 38.57C15.69 38.04 14.56 37.28 13.57 36.29C12.59 35.31 11.83 34.17 11.3 32.89C10.76 31.6 10.5 30.26 10.5 28.87C10.5 27.48 10.76 26.14 11.3 24.85C11.83 23.57 12.59 22.43 13.57 21.45C14.56 20.46 15.69 19.7 16.98 19.17C18.26 18.64 19.6 18.37 21 18.37C22.39 18.37 23.73 18.64 25.01 19.17C26.3 19.7 27.44 20.46 28.42 21.45C29.4 22.43 30.16 23.57 30.7 24.85C31.23 26.14 31.5 27.48 31.5 28.87C31.5 30.26 31.23 31.6 30.7 32.89C30.16 34.17 29.4 35.31 28.42 36.29C27.44 37.28 26.3 38.04 25.01 38.57C23.73 39.1 22.39 39.37 21 39.37C19.6 39.37 18.26 39.1 16.98 38.57ZM36.75 34.12L33.02 34.12C34.65 30.43 34.58 26.76 32.81 23.13L38.06 21.74L38.06 32.81C38.06 33.68 37.62 34.12 36.75 34.12ZM23.62 24.93C24.5 24.93 24.93 24.5 24.93 23.62C24.93 22.75 24.5 22.31 23.62 22.31L22.31 22.31C22.31 21.43 21.87 21 21 21C20.12 21 19.68 21.43 19.68 22.31L19.68 22.54C18.79 22.87 18.1 23.44 17.62 24.27C17.14 25.09 16.98 25.97 17.15 26.91C17.31 27.85 17.75 28.63 18.48 29.25C19.2 29.86 20.04 30.18 21 30.18C21.87 30.18 22.31 30.62 22.31 31.5C22.31 32.37 21.87 32.81 21 32.81L18.37 32.81C17.5 32.81 17.06 33.25 17.06 34.12C17.06 35 17.5 35.43 18.37 35.43L19.68 35.43C19.68 36.31 20.12 36.75 21 36.75C21.87 36.75 22.31 36.31 22.31 35.43L22.31 35.2C23.2 34.87 23.89 34.3 24.37 33.47C24.85 32.65 25.01 31.77 24.85 30.83C24.68 29.89 24.24 29.11 23.51 28.49C22.79 27.88 21.95 27.56 21 27.56C20.12 27.56 19.68 27.12 19.68 26.25C19.68 25.37 20.12 24.93 21 24.93L23.62 24.93Z" stroke="#000000" stroke-opacity="1.000000" stroke-width="0.500000"/>
</svg>
