<svg width="44.000000" height="44.000000" viewBox="0 0 44 44" fill="none" xmlns="http://www.w3.org/2000/svg" xmlns:xlink="http://www.w3.org/1999/xlink">
	<desc>
			Created with Pixso.
	</desc>
	<defs/>
	<path id="Иконка - страхование" d="M15.99 42L27.98 42C37.98 42 41.98 38 41.98 28L41.98 16C41.98 6 37.98 2 27.98 2L15.99 2C5.99 2 2 6 2 16L2 28C2 38 5.99 42 15.99 42ZM2.02 25.38L2 25.4C0.88 25.4 0 24.52 0 23.4C-0.01 22.28 0.87 21.4 1.99 21.4L2.01 21.42L2.02 25.38ZM41.98 24.04L42 24.02C43.12 24.02 44 24.9 44 26.02C44 27.14 43.12 28.02 42 28.02L41.98 28L41.98 24.04Z" fill="#000000" fill-opacity="0" fill-rule="nonzero"/>
	<path id="Иконка - страхование" d="M27.98 42C37.98 42 41.98 38 41.98 28L41.98 16C41.98 6 37.98 2 27.98 2L15.99 2C5.99 2 2 6 2 16L2 28C2 38 5.99 42 15.99 42L27.98 42ZM2 23.4L13.99 23.36C15.49 23.36 17.17 24.5 17.73 25.9L20.01 31.66C20.53 32.96 21.35 32.96 21.87 31.66L26.44 20.04C26.88 18.92 27.7 18.88 28.26 19.94L30.34 23.88C30.96 25.06 32.56 26.02 33.88 26.02L42 26.02" stroke="#000000" stroke-opacity="1.000000" stroke-width="4.000000" stroke-linejoin="round" stroke-linecap="round"/>
</svg>
