<svg width="43.000000" height="43.000000" viewBox="0 0 43 43" fill="none" xmlns="http://www.w3.org/2000/svg" xmlns:xlink="http://www.w3.org/1999/xlink">
	<desc>
			Created with Pixso.
	</desc>
	<defs/>
	<path id="Иконка - ипотека" d="M1 16.45L18.64 1.79C18.95 1.54 19.31 1.34 19.72 1.2C20.12 1.07 20.56 1 21 1C21.43 1 21.87 1.07 22.27 1.2C22.68 1.34 23.04 1.54 23.35 1.79L26.51 4.41C26.69 3.8 27.26 3.37 27.94 3.37L27.96 3.39L27.96 5.62L38.75 14.58L40.25 14.58L40.27 14.6C40.27 14.97 40.15 15.31 39.93 15.57L41 16.45L41 38.55C41 39.2 40.61 39.82 39.93 40.28C39.25 40.74 38.32 41 37.36 41L27.66 41L14.33 41L4.63 41C3.67 41 2.74 40.74 2.06 40.28C1.38 39.82 1 39.2 1 38.55L1 16.45Z" fill="#C4C4C4" fill-opacity="0" fill-rule="evenodd"/>
	<path id="Иконка - ипотека" d="M19.24 -0.22C18.66 -0.02 18.14 0.26 17.69 0.63L17.68 0.64L-0.5 15.75L-0.5 32.03L-0.5 38.55C-0.5 39.76 0.07 40.75 1.22 41.52C2.19 42.17 3.32 42.5 4.63 42.5L37.36 42.5Q39.01 42.5 40.29 41.81Q40.54 41.68 40.77 41.52Q41.9 40.76 42.29 39.72Q42.5 39.18 42.5 38.55L42.5 16.45C42.5 15.98 42.31 15.6 41.95 15.3L40.27 13.9L40.27 3.37L27.94 3.37C27.83 3.37 27.73 3.38 27.63 3.4L24.3 0.63Q24.2 0.55 24.09 0.47Q23.49 0.03 22.75 -0.22C22.19 -0.41 21.6 -0.5 21 -0.5Q20.39 -0.5 19.81 -0.38Q19.52 -0.31 19.24 -0.22ZM31.2 6.37L37.27 11.41L37.27 6.37L31.2 6.37ZM37.71 15.67L22.4 2.96C22.23 2.81 22.03 2.7 21.79 2.62C21.54 2.54 21.27 2.5 21 2.5C20.72 2.5 20.45 2.54 20.2 2.62C19.97 2.7 19.76 2.81 19.59 2.95L2.5 17.15L2.5 32.03L2.5 38.55C2.5 38.69 2.63 38.85 2.9 39.03C3.35 39.34 3.93 39.5 4.63 39.5L12.83 39.5L12.83 31.9Q12.83 30.76 13.2 29.75Q13.79 28.15 15.33 26.89Q16.13 26.24 17.03 25.8Q18.81 24.95 21 24.95Q23.18 24.95 24.96 25.8Q25.86 26.24 26.66 26.89C28.33 28.25 29.16 29.92 29.16 31.9L29.16 39.5L37.36 39.5C38.06 39.5 38.64 39.34 39.09 39.03C39.36 38.85 39.5 38.69 39.5 38.55L39.5 17.15L37.91 15.84C37.84 15.79 37.77 15.73 37.71 15.67ZM26.16 39.5L26.16 31.9Q26.16 31.45 26.04 31.03Q25.75 30.02 24.76 29.21C23.73 28.37 22.48 27.95 21 27.95Q19.34 27.95 18.06 28.65Q17.62 28.89 17.23 29.21Q16.24 30.02 15.95 31.03Q15.83 31.45 15.83 31.9L15.83 39.5L26.16 39.5ZM13.51 21.86Q13.87 22.04 14.33 22.04L27.66 22.04Q28.12 22.04 28.48 21.86Q29.69 21.24 29.87 18.6C29.92 17.88 29.93 17.17 29.9 16.45C29.93 15.73 29.92 15.02 29.87 14.3C29.72 12.01 28.98 10.86 27.66 10.86L14.33 10.86Q13.87 10.86 13.51 11.04Q12.3 11.66 12.12 14.3C12.07 15.02 12.06 15.73 12.09 16.45C12.06 17.17 12.07 17.88 12.12 18.6Q12.3 21.24 13.51 21.86ZM15.18 19.04L26.82 19.04C26.84 18.86 26.86 18.64 26.88 18.39C26.92 17.77 26.93 17.14 26.9 16.52L26.9 16.45L26.9 16.38Q26.92 16.02 26.92 15.66Q26.92 15.09 26.88 14.51C26.86 14.26 26.84 14.04 26.82 13.86L15.18 13.86C15.15 14.04 15.13 14.26 15.11 14.51C15.07 15.13 15.06 15.76 15.09 16.38L15.09 16.45L15.09 16.52Q15.07 16.88 15.07 17.24Q15.07 17.82 15.11 18.39C15.13 18.64 15.15 18.86 15.18 19.04Z" fill="#000000" fill-opacity="1.000000" fill-rule="evenodd"/>
</svg>
