<svg width="45.000000" height="45.000000" viewBox="0 0 45 45" fill="none" xmlns="http://www.w3.org/2000/svg" xmlns:xlink="http://www.w3.org/1999/xlink">
	<desc>
			Created with Pixso.
	</desc>
	<defs/>
	<path id="Иконка" d="M39.95 17.99C39.26 11 35.04 0 22 0C8.95 0 4.73 11 4.04 17.99C1.59 18.9 -0.02 21.2 0 23.76L0 26.84C0 30.24 2.81 33 6.28 33C9.75 33 12.57 30.24 12.57 26.84L12.57 23.76C12.56 21.25 11 19 8.64 18.06C9.09 14.01 11.29 4.39 22 4.39C32.7 4.39 34.88 14.01 35.33 18.06C32.97 19 31.42 21.25 31.42 23.76L31.42 26.84C31.43 29.2 32.82 31.35 34.99 32.38C34.05 34.12 31.65 36.47 25.74 37.18C24.56 35.42 22.28 34.73 20.29 35.52C18.31 36.32 17.17 38.38 17.59 40.44C18 42.51 19.85 44 22 44C23.69 43.99 25.24 43.04 25.99 41.55C35.62 40.48 38.7 35.61 39.66 32.75C42.27 31.92 44.03 29.53 43.99 26.84L43.99 23.76C44.01 21.2 42.39 18.9 39.95 17.99ZM8.08 26.84C8.08 27.81 7.27 28.6 6.28 28.6C5.29 28.6 4.48 27.81 4.48 26.84L4.48 23.76C4.48 23.13 4.83 22.55 5.38 22.23C5.94 21.92 6.62 21.92 7.18 22.23C7.73 22.55 8.08 23.13 8.08 23.76L8.08 26.84ZM35.91 23.76C35.91 22.78 36.72 22 37.71 22C38.7 22 39.5 22.78 39.5 23.76L39.5 26.84C39.5 27.81 38.7 28.6 37.71 28.6C36.72 28.6 35.91 27.81 35.91 26.84L35.91 23.76Z" fill="#000000" fill-opacity="1.000000" fill-rule="evenodd"/>
	<path id="Иконка" d="M22 0C8.95 0 4.73 11 4.04 17.99C1.59 18.9 -0.02 21.2 0 23.76L0 26.84C0 30.24 2.81 33 6.28 33C9.75 33 12.57 30.24 12.57 26.84L12.57 23.76C12.56 21.25 11 19 8.64 18.06C9.09 14.01 11.29 4.39 22 4.39C32.7 4.39 34.88 14.01 35.33 18.06C32.97 19 31.42 21.25 31.42 23.76L31.42 26.84C31.43 29.2 32.82 31.35 34.99 32.38C34.05 34.12 31.65 36.47 25.74 37.18C24.56 35.42 22.28 34.73 20.29 35.52C18.31 36.32 17.17 38.38 17.59 40.44C18 42.51 19.85 44 22 44C23.69 43.99 25.24 43.04 25.99 41.55C35.62 40.48 38.7 35.61 39.66 32.75C42.27 31.92 44.03 29.53 43.99 26.84L43.99 23.76C44.01 21.2 42.39 18.9 39.95 17.99C39.26 11 35.04 0 22 0ZM6.28 28.6C5.29 28.6 4.48 27.81 4.48 26.84L4.48 23.76C4.48 23.13 4.83 22.55 5.38 22.23C5.94 21.92 6.62 21.92 7.18 22.23C7.73 22.55 8.08 23.13 8.08 23.76L8.08 26.84C8.08 27.81 7.27 28.6 6.28 28.6ZM37.71 22C38.7 22 39.5 22.78 39.5 23.76L39.5 26.84C39.5 27.81 38.7 28.6 37.71 28.6C36.72 28.6 35.91 27.81 35.91 26.84L35.91 23.76C35.91 22.78 36.72 22 37.71 22Z" stroke="#000000" stroke-opacity="1.000000" stroke-width="0.250000"/>
</svg>
