<svg width="40.000000" height="40.000000" viewBox="0 0 40 40" fill="none" xmlns="http://www.w3.org/2000/svg" xmlns:xlink="http://www.w3.org/1999/xlink">
	<desc>
			Created with Pixso.
	</desc>
	<defs>
		<linearGradient x1="0.000000" y1="-0.000002" x2="40.000004" y2="-0.000002" id="paint_linear_38_3_0" gradientUnits="userSpaceOnUse">
			<stop stop-color="#9BC690"/>
			<stop offset="1.000000" stop-color="#65B4AB"/>
		</linearGradient>
	</defs>
	<path id="Логотип" d="M18.44 0C17.97 0.28 17.54 0.68 16.93 0.68C15.08 0.66 12.69 -0.49 11.86 1.57C8.81 1.37 9.49 2.74 9.45 3.81C10.2 3.55 11 3.08 11.65 3.13C18.8 6.94 15.41 9.96 13.61 13.15L10.76 11.91C11.5 9.64 11.86 7.45 9.69 5.77C-3.22 5.15 2.06 20.39 0 29.22C2.59 28.79 4.53 27.46 6.34 25.96L6.5 23.63C8.88 23.47 9.02 21.63 9.5 20.04C10.45 22.1 11.18 20.45 11.99 20.16C12.43 21.29 13.24 21.66 14.76 20.53L15.57 21.48C12.59 22.37 12.36 24.26 12.17 26.16C11.59 27.31 10.57 28.15 9.56 29C7.47 26.54 6.84 27.67 5.95 28.17C6.45 28.2 7.01 28.18 7.1 28.66C5.5 28.85 5.7 29.61 6.11 30.44C6.33 30.08 6.44 29.38 6.89 29.75C7.51 30.51 8.46 30.19 9.32 30.18C10.05 31.11 10.77 30.87 10.92 32.16L10.44 32.85C11.15 32.91 12.15 32.13 11.83 31.61C11.83 31.61 10.66 30.54 10.73 29.83C10.87 28.49 13.45 27.08 13.45 27.08C13.45 27.08 14.43 27.2 14.92 27.11C15.73 26.95 17.24 26.13 17.24 26.13C15.49 29.56 13.19 32.38 13.3 35.96C13.36 37.84 15.66 38.01 16.08 36.89C16.17 39.44 17.19 39.47 18.68 38.23C19.49 40.63 20.66 40.53 21.31 38.23C22.8 39.47 23.82 39.44 23.91 36.89C24.33 38.01 26.63 37.84 26.69 35.96C26.8 32.38 24.5 29.56 22.75 26.13C22.75 26.13 24.26 26.95 25.07 27.11C25.56 27.2 26.54 27.08 26.54 27.08C26.54 27.08 29.12 28.49 29.26 29.83C29.33 30.54 28.16 31.61 28.16 31.61C27.84 32.13 28.84 32.91 29.54 32.85L29.07 32.16C29.22 30.87 29.93 31.11 30.67 30.18C31.53 30.19 32.48 30.51 33.1 29.75C33.55 29.38 33.66 30.08 33.88 30.44C34.29 29.61 34.49 28.85 32.89 28.66C32.98 28.18 33.54 28.2 34.04 28.17C33.15 27.67 32.52 26.54 30.43 29C29.41 28.15 28.4 27.31 27.82 26.16C27.63 24.26 27.4 22.37 24.42 21.48L25.23 20.53C26.75 21.66 27.56 21.29 28 20.16C28.81 20.45 29.54 22.1 30.49 20.04C30.97 21.63 31.11 23.47 33.49 23.63L33.65 25.96C35.46 27.46 37.4 28.79 40 29.22C37.93 20.39 43.21 5.15 30.3 5.77C28.13 7.45 28.48 9.64 29.23 11.91L26.38 13.15C24.58 9.96 21.19 6.94 28.34 3.13C28.99 3.08 29.79 3.55 30.54 3.81C30.51 2.74 31.18 1.37 28.13 1.57C27.3 -0.49 24.91 0.66 23.06 0.68C22.45 0.68 22.02 0.28 21.55 0C21.47 0.84 21.55 1.63 22.64 2.02C21.02 3.41 20.57 6.02 19.99 8.32C19.42 6.02 18.97 3.41 17.35 2.02C18.44 1.63 18.52 0.84 18.44 0Z" fill="url(#paint_linear_38_3_0)" fill-opacity="1.000000" fill-rule="nonzero"/>
	<path id="Логотип" d="M16.93 0.68C15.08 0.66 12.69 -0.49 11.86 1.57C8.81 1.37 9.49 2.74 9.45 3.81C10.2 3.55 11 3.08 11.65 3.13C18.8 6.94 15.41 9.96 13.61 13.15L10.76 11.91C11.5 9.64 11.86 7.45 9.69 5.77C-3.22 5.15 2.06 20.39 0 29.22C2.59 28.79 4.53 27.46 6.34 25.96L6.5 23.63C8.88 23.47 9.02 21.63 9.5 20.04C10.45 22.1 11.18 20.45 11.99 20.16C12.43 21.29 13.24 21.66 14.76 20.53L15.57 21.48C12.59 22.37 12.36 24.26 12.17 26.16C11.59 27.31 10.57 28.15 9.56 29C7.47 26.54 6.84 27.67 5.95 28.17C6.45 28.2 7.01 28.18 7.1 28.66C5.5 28.85 5.7 29.61 6.11 30.44C6.33 30.08 6.44 29.38 6.89 29.75C7.51 30.51 8.46 30.19 9.32 30.18C10.05 31.11 10.77 30.87 10.92 32.16L10.44 32.85C11.15 32.91 12.15 32.13 11.83 31.61C11.83 31.61 10.66 30.54 10.73 29.83C10.87 28.49 13.45 27.08 13.45 27.08C13.45 27.08 14.43 27.2 14.92 27.11C15.73 26.95 17.24 26.13 17.24 26.13C15.49 29.56 13.19 32.38 13.3 35.96C13.36 37.84 15.66 38.01 16.08 36.89C16.17 39.44 17.19 39.47 18.68 38.23C19.49 40.63 20.66 40.53 21.31 38.23C22.8 39.47 23.82 39.44 23.91 36.89C24.33 38.01 26.63 37.84 26.69 35.96C26.8 32.38 24.5 29.56 22.75 26.13C22.75 26.13 24.26 26.95 25.07 27.11C25.56 27.2 26.54 27.08 26.54 27.08C26.54 27.08 29.12 28.49 29.26 29.83C29.33 30.54 28.16 31.61 28.16 31.61C27.84 32.13 28.84 32.91 29.54 32.85L29.07 32.16C29.22 30.87 29.93 31.11 30.67 30.18C31.53 30.19 32.48 30.51 33.1 29.75C33.55 29.38 33.66 30.08 33.88 30.44C34.29 29.61 34.49 28.85 32.89 28.66C32.98 28.18 33.54 28.2 34.04 28.17C33.15 27.67 32.52 26.54 30.43 29C29.41 28.15 28.4 27.31 27.82 26.16C27.63 24.26 27.4 22.37 24.42 21.48L25.23 20.53C26.75 21.66 27.56 21.29 28 20.16C28.81 20.45 29.54 22.1 30.49 20.04C30.97 21.63 31.11 23.47 33.49 23.63L33.65 25.96C35.46 27.46 37.4 28.79 40 29.22C37.93 20.39 43.21 5.15 30.3 5.77C28.13 7.45 28.48 9.64 29.23 11.91L26.38 13.15C24.58 9.96 21.19 6.94 28.34 3.13C28.99 3.08 29.79 3.55 30.54 3.81C30.51 2.74 31.18 1.37 28.13 1.57C27.3 -0.49 24.91 0.66 23.06 0.68C22.45 0.68 22.02 0.28 21.55 0C21.47 0.84 21.55 1.63 22.64 2.02C21.02 3.41 20.57 6.02 19.99 8.32C19.42 6.02 18.97 3.41 17.35 2.02C18.44 1.63 18.52 0.84 18.44 0C17.97 0.28 17.54 0.68 16.93 0.68Z" stroke="#C57AEA" stroke-opacity="1.000000" stroke-width="0.000000"/>
</svg>
