<svg width="191.000000" height="191.000000" viewBox="0 0 191 191" fill="none" xmlns="http://www.w3.org/2000/svg" xmlns:xlink="http://www.w3.org/1999/xlink">
	<desc>
			Created with Pixso.
	</desc>
	<defs>
		<linearGradient x1="0.000000" y1="0.000000" x2="191.000000" y2="0.000000" id="paint_linear_71_55_0" gradientUnits="userSpaceOnUse">
			<stop stop-color="#9BC690"/>
			<stop offset="1.000000" stop-color="#65B4AB"/>
		</linearGradient>
	</defs>
	<path id="path925" d="M88.09 0C85.8 1.37 83.75 3.27 80.85 3.28C72.04 3.17 60.61 -2.32 56.63 7.54C42.09 6.58 45.31 13.12 45.15 18.24C48.7 16.96 52.53 14.74 55.63 14.94C89.77 33.17 73.62 47.57 65 62.8L51.39 56.9C54.96 46.06 56.65 35.6 46.28 27.56C-15.35 24.63 9.87 97.38 0 139.53C12.39 137.49 21.63 131.12 30.3 123.97L31.04 112.86C42.43 112.11 43.08 103.28 45.4 95.72C49.9 105.56 53.4 97.65 57.26 96.27C59.37 101.69 63.22 103.46 70.49 98.05L74.36 102.58C60.13 106.85 59.02 115.85 58.13 124.93C55.38 130.41 50.51 134.45 45.65 138.5C35.69 126.77 32.67 132.17 28.42 134.53C30.84 134.68 33.49 134.58 33.92 136.86C26.29 137.76 27.24 141.4 29.17 145.36C30.23 143.67 30.78 140.33 32.92 142.07C35.89 145.72 40.41 144.18 44.53 144.13C48.03 148.57 51.46 147.43 52.14 153.59L49.89 156.88C53.25 157.16 58.03 153.44 56.49 150.95C56.49 150.95 50.91 145.87 51.27 142.48C51.94 136.05 64.25 129.32 64.25 129.32C64.25 129.32 68.94 129.9 71.24 129.45C75.14 128.7 82.35 124.79 82.35 124.79C73.97 141.17 63.02 154.64 63.54 171.72C63.82 180.69 74.77 181.5 76.78 176.18C77.25 188.32 82.12 188.49 89.23 182.58C93.1 194.05 98.65 193.55 101.76 182.58C108.87 188.49 113.74 188.32 114.2 176.18C116.21 181.5 127.17 180.69 127.44 171.72C127.52 169.14 127.32 166.66 126.92 164.23C128.61 164.5 130.31 164.65 132.02 164.66C136.45 164.66 140.74 163.81 144.9 162.12C149.06 160.43 152.83 158 156.2 154.83C159.57 151.67 162.33 147.96 164.5 143.71C166.66 139.46 168.09 134.93 168.79 130.12C175.24 134.55 182.35 138.11 191 139.53C181.12 97.38 206.34 24.63 144.71 27.56C134.34 35.6 136.03 46.06 139.59 56.9L125.99 62.8C117.37 47.57 101.22 33.17 135.35 14.94C138.45 14.74 142.29 16.96 145.84 18.24C145.68 13.12 148.89 6.58 134.36 7.54C130.38 -2.32 118.95 3.18 110.14 3.28C107.24 3.26 105.18 1.37 102.9 0C102.56 4.03 102.9 7.8 108.14 9.67C100.38 16.32 98.22 28.76 95.49 39.74C92.76 28.76 90.61 16.32 82.85 9.67C88.09 7.8 88.43 4.03 88.09 0Z" fill="url(#paint_linear_71_55_0)" fill-opacity="1.000000" fill-rule="nonzero"/>
	<path id="path925" d="M80.85 3.28C72.04 3.17 60.61 -2.32 56.63 7.54C42.09 6.58 45.31 13.12 45.15 18.24C48.7 16.96 52.53 14.74 55.63 14.94C89.77 33.17 73.62 47.57 65 62.8L51.39 56.9C54.96 46.06 56.65 35.6 46.28 27.56C-15.35 24.63 9.87 97.38 0 139.53C12.39 137.49 21.63 131.12 30.3 123.97L31.04 112.86C42.43 112.11 43.08 103.28 45.4 95.72C49.9 105.56 53.4 97.65 57.26 96.27C59.37 101.69 63.22 103.46 70.49 98.05L74.36 102.58C60.13 106.85 59.02 115.85 58.13 124.93C55.38 130.41 50.51 134.45 45.65 138.5C35.69 126.77 32.67 132.17 28.42 134.53C30.84 134.68 33.49 134.58 33.92 136.86C26.29 137.76 27.24 141.4 29.17 145.36C30.23 143.67 30.78 140.33 32.92 142.07C35.89 145.72 40.41 144.18 44.53 144.13C48.03 148.57 51.46 147.43 52.14 153.59L49.89 156.88C53.25 157.16 58.03 153.44 56.49 150.95C56.49 150.95 50.91 145.87 51.27 142.48C51.94 136.05 64.25 129.32 64.25 129.32C64.25 129.32 68.94 129.9 71.24 129.45C75.14 128.7 82.35 124.79 82.35 124.79C73.97 141.17 63.02 154.64 63.54 171.72C63.82 180.69 74.77 181.5 76.78 176.18C77.25 188.32 82.12 188.49 89.23 182.58C93.1 194.05 98.65 193.55 101.76 182.58C108.87 188.49 113.74 188.32 114.2 176.18C116.21 181.5 127.17 180.69 127.44 171.72C127.52 169.14 127.32 166.66 126.92 164.23C128.61 164.5 130.31 164.65 132.02 164.66C136.45 164.66 140.74 163.81 144.9 162.12C149.06 160.43 152.83 158 156.2 154.83C159.57 151.67 162.33 147.96 164.5 143.71C166.66 139.46 168.09 134.93 168.79 130.12C175.24 134.55 182.35 138.11 191 139.53C181.12 97.38 206.34 24.63 144.71 27.56C134.34 35.6 136.03 46.06 139.59 56.9L125.99 62.8C117.37 47.57 101.22 33.17 135.35 14.94C138.45 14.74 142.29 16.96 145.84 18.24C145.68 13.12 148.89 6.58 134.36 7.54C130.38 -2.32 118.95 3.18 110.14 3.28C107.24 3.26 105.18 1.37 102.9 0C102.56 4.03 102.9 7.8 108.14 9.67C100.38 16.32 98.22 28.76 95.49 39.74C92.76 28.76 90.61 16.32 82.85 9.67C88.09 7.8 88.43 4.03 88.09 0C85.8 1.37 83.75 3.27 80.85 3.28Z" stroke="#C57AEA" stroke-opacity="1.000000" stroke-width="0.000000"/>
	<path id="rect832" d="M126.74 104.14L126.74 117.78L114.32 117.78L114.32 129.32L126.74 129.32L126.74 142.96L137.24 142.96L137.24 129.32L149.66 129.32L149.66 117.78L137.24 117.78L137.24 104.14L126.74 104.14Z" fill="#FFFFFF" fill-opacity="1.000000" fill-rule="nonzero"/>
	<path id="rect832" d="M126.74 117.78L114.32 117.78L114.32 129.32L126.74 129.32L126.74 142.96L137.24 142.96L137.24 129.32L149.66 129.32L149.66 117.78L137.24 117.78L137.24 104.14L126.74 104.14L126.74 117.78Z" stroke="#000000" stroke-opacity="0" stroke-width="0.785366"/>
	<ellipse id="circle858" cx="132.016602" cy="123.707413" rx="37.280678" ry="40.959118" fill="#000000" fill-opacity="0"/>
	<ellipse id="circle858" cx="132.016602" cy="123.707413" rx="37.280678" ry="40.959118" stroke="#FFFFFD" stroke-opacity="1.000000" stroke-width="2.900849"/>
</svg>
